REM DIRINDEX 1\2,1\3
REM DIRNAME folder01,folder02,folder03
TITLE ""
FILE "2581-2600.mp3" MP3
  TRACK 01 AUDIO
    TITLE "0:"
    INDEX 01 00:00:00
  TRACK 02 AUDIO
    TITLE "2:cjc039_4161"
    INDEX 01 00:00:27
  TRACK 03 AUDIO
    TITLE "0:"
    INDEX 01 00:01:42
  TRACK 04 AUDIO
    TITLE "3:cjc039_4162"
    INDEX 01 00:02:18
  TRACK 05 AUDIO
    TITLE "0:"
    INDEX 01 00:05:34
  TRACK 06 AUDIO
    TITLE "2:cjc039_4163"
    INDEX 01 00:07:09
  TRACK 07 AUDIO
    TITLE "0:"
    INDEX 01 00:08:54
  TRACK 08 AUDIO
    TITLE "3:cjc039_4164"
    INDEX 01 00:09:26
  TRACK 09 AUDIO
    TITLE "0:"
    INDEX 01 00:13:69
  TRACK 10 AUDIO
    TITLE "2:cjc039_4165"
    INDEX 01 00:15:40
  TRACK 11 AUDIO
    TITLE "0:"
    INDEX 01 00:16:48
  TRACK 12 AUDIO
    TITLE "3:cjc039_4166"
    INDEX 01 00:17:25
  TRACK 13 AUDIO
    TITLE "0:"
    INDEX 01 00:21:00
  TRACK 14 AUDIO
    TITLE "2:cjc039_4167"
    INDEX 01 00:22:50
  TRACK 15 AUDIO
    TITLE "0:"
    INDEX 01 00:24:12
  TRACK 16 AUDIO
    TITLE "3:cjc039_4168"
    INDEX 01 00:24:69
  TRACK 17 AUDIO
    TITLE "0:"
    INDEX 01 00:29:03
  TRACK 18 AUDIO
    TITLE "2:cjc039_4169"
    INDEX 01 00:30:50
  TRACK 19 AUDIO
    TITLE "0:"
    INDEX 01 00:31:43
  TRACK 20 AUDIO
    TITLE "3:cjc039_4170"
    INDEX 01 00:32:27
  TRACK 21 AUDIO
    TITLE "0:"
    INDEX 01 00:35:49
  TRACK 22 AUDIO
    TITLE "2:cjc039_4171"
    INDEX 01 00:37:28
  TRACK 23 AUDIO
    TITLE "0:"
    INDEX 01 00:40:48
  TRACK 24 AUDIO
    TITLE "3:cjc039_4172"
    INDEX 01 00:41:18
  TRACK 25 AUDIO
    TITLE "0:"
    INDEX 01 00:45:45
  TRACK 26 AUDIO
    TITLE "2:cjc039_4173"
    INDEX 01 00:47:21
  TRACK 27 AUDIO
    TITLE "0:"
    INDEX 01 00:48:28
  TRACK 28 AUDIO
    TITLE "3:cjc039_4174"
    INDEX 01 00:49:04
  TRACK 29 AUDIO
    TITLE "0:"
    INDEX 01 00:52:45
  TRACK 30 AUDIO
    TITLE "2:cjc039_4175"
    INDEX 01 00:54:19
  TRACK 31 AUDIO
    TITLE "0:"
    INDEX 01 00:55:51
  TRACK 32 AUDIO
    TITLE "3:cjc039_4176"
    INDEX 01 00:56:27
  TRACK 33 AUDIO
    TITLE "0:"
    INDEX 01 01:00:70
  TRACK 34 AUDIO
    TITLE "2:cjc039_4177"
    INDEX 01 01:02:46
  TRACK 35 AUDIO
    TITLE "0:"
    INDEX 01 01:03:57
  TRACK 36 AUDIO
    TITLE "3:cjc039_4178"
    INDEX 01 01:04:31
  TRACK 37 AUDIO
    TITLE "0:"
    INDEX 01 01:08:54
  TRACK 38 AUDIO
    TITLE "2:cjc039_4179"
    INDEX 01 01:10:30
  TRACK 39 AUDIO
    TITLE "0:"
    INDEX 01 01:11:58
  TRACK 40 AUDIO
    TITLE "3:cjc039_4180"
    INDEX 01 01:12:34
  TRACK 41 AUDIO
    TITLE "0:"
    INDEX 01 01:17:02
  TRACK 42 AUDIO
    TITLE "2:cjc039_4181"
    INDEX 01 01:18:51
  TRACK 43 AUDIO
    TITLE "0:"
    INDEX 01 01:19:58
  TRACK 44 AUDIO
    TITLE "3:cjc039_4182"
    INDEX 01 01:20:38
  TRACK 45 AUDIO
    TITLE "0:"
    INDEX 01 01:23:71
  TRACK 46 AUDIO
    TITLE "2:cjc039_4183"
    INDEX 01 01:25:47
  TRACK 47 AUDIO
    TITLE "0:"
    INDEX 01 01:26:58
  TRACK 48 AUDIO
    TITLE "3:cjc039_4184"
    INDEX 01 01:27:34
  TRACK 49 AUDIO
    TITLE "0:"
    INDEX 01 01:31:26
  TRACK 50 AUDIO
    TITLE "2:cjc039_4185"
    INDEX 01 01:33:03
  TRACK 51 AUDIO
    TITLE "0:"
    INDEX 01 01:34:24
  TRACK 52 AUDIO
    TITLE "3:cjc039_4186"
    INDEX 01 01:35:06
  TRACK 53 AUDIO
    TITLE "0:"
    INDEX 01 01:39:15
  TRACK 54 AUDIO
    TITLE "2:cjc039_4187"
    INDEX 01 01:40:68
  TRACK 55 AUDIO
    TITLE "0:"
    INDEX 01 01:42:28
  TRACK 56 AUDIO
    TITLE "3:cjc039_4188"
    INDEX 01 01:43:03
  TRACK 57 AUDIO
    TITLE "0:"
    INDEX 01 01:48:12
  TRACK 58 AUDIO
    TITLE "2:cjc039_4189"
    INDEX 01 01:49:65
  TRACK 59 AUDIO
    TITLE "0:"
    INDEX 01 01:51:05
  TRACK 60 AUDIO
    TITLE "3:cjc039_4190"
    INDEX 01 01:51:56
  TRACK 61 AUDIO
    TITLE "0:"
    INDEX 01 01:56:08
  TRACK 62 AUDIO
    TITLE "2:cjc039_4191"
    INDEX 01 01:57:62
  TRACK 63 AUDIO
    TITLE "0:"
    INDEX 01 01:59:08
  TRACK 64 AUDIO
    TITLE "3:cjc039_4192"
    INDEX 01 01:59:63
  TRACK 65 AUDIO
    TITLE "0:"
    INDEX 01 02:03:63
  TRACK 66 AUDIO
    TITLE "2:cjc039_4193"
    INDEX 01 02:05:44
  TRACK 67 AUDIO
    TITLE "0:"
    INDEX 01 02:06:59
  TRACK 68 AUDIO
    TITLE "3:cjc039_4194"
    INDEX 01 02:07:37
  TRACK 69 AUDIO
    TITLE "0:"
    INDEX 01 02:11:29
  TRACK 70 AUDIO
    TITLE "2:cjc039_4195"
    INDEX 01 02:13:10
  TRACK 71 AUDIO
    TITLE "0:"
    INDEX 01 02:14:33
  TRACK 72 AUDIO
    TITLE "3:cjc039_4196"
    INDEX 01 02:15:15
  TRACK 73 AUDIO
    TITLE "0:"
    INDEX 01 02:19:70
  TRACK 74 AUDIO
    TITLE "2:cjc039_4197"
    INDEX 01 02:21:47
  TRACK 75 AUDIO
    TITLE "0:"
    INDEX 01 02:22:66
  TRACK 76 AUDIO
    TITLE "3:cjc039_4198"
    INDEX 01 02:23:40
  TRACK 77 AUDIO
    TITLE "0:"
    INDEX 01 02:28:30
  TRACK 78 AUDIO
    TITLE "2:cjc039_4199"
    INDEX 01 02:30:09
  TRACK 79 AUDIO
    TITLE "0:"
    INDEX 01 02:31:44
  TRACK 80 AUDIO
    TITLE "3:cjc039_4200"
    INDEX 01 02:32:24
  TRACK 81 AUDIO
    TITLE "0:"
    INDEX 01 02:36:43
